<?xml version="1.0" encoding="UTF-8"?>
<svg xmlns="http://www.w3.org/2000/svg" viewBox="0 0 144 144" width="144px" height="144px">
<g id="surface32352118">
<path style=" stroke:none;fill-rule:nonzero;fill:rgb(100%,100%,100%);fill-opacity:1;" d="M 132.25 89.371094 C 131.699219 86.882812 129.445312 83.980469 124.894531 83.980469 C 123.964844 83.980469 122.945312 84.097656 121.789062 84.339844 C 119.664062 84.777344 117.855469 84.988281 116.261719 85.0625 C 128.660156 63.941406 136.710938 34.605469 128.738281 24.421875 C 118.234375 11 104.097656 8.996094 96.605469 8.996094 L 95.902344 9 C 93.113281 9.046875 90.222656 9.386719 87.3125 10.015625 L 76.5625 12.339844 C 75.097656 12.15625 73.609375 12.027344 72.054688 12 L 71.914062 12 L 71.460938 11.996094 C 66.679688 11.996094 62.320312 13.011719 58.4375 14.914062 L 54.683594 13.4375 C 49.523438 11.402344 41.761719 8.980469 34.078125 8.980469 C 33.648438 8.980469 33.21875 8.992188 32.785156 9.007812 C 25.222656 9.277344 18.722656 12.148438 13.992188 17.308594 C 8.089844 23.746094 5.398438 33.160156 6.007812 45.300781 C 6.039062 45.925781 13.382812 108 34.199219 108 L 34.273438 108 L 34.46875 107.996094 C 37.171875 107.929688 39.746094 106.84375 42.15625 104.765625 C 43.996094 106.144531 46.375 106.960938 48.589844 107.285156 C 50.054688 107.632812 52.6875 108.121094 55.84375 108.121094 C 59.695312 108.121094 63.171875 107.332031 66.164062 105.90625 C 66.160156 108.546875 66.148438 111.886719 66.117188 116.160156 L 66.113281 116.386719 L 66.128906 116.609375 C 66.421875 120.867188 67.15625 124.703125 68.261719 127.714844 C 71.414062 136.289062 76.859375 141.015625 83.59375 141.015625 C 83.875 141.015625 84.160156 141.007812 84.445312 140.988281 C 89.984375 140.644531 95.597656 137.535156 99.460938 132.671875 C 103.636719 127.40625 104.605469 121.851562 104.976562 117.59375 L 105 117.332031 L 105 104.832031 L 105.308594 104.863281 L 106.617188 104.976562 L 106.742188 104.988281 L 106.867188 104.992188 C 107.242188 105.011719 107.625 105.019531 108.011719 105.019531 C 112.53125 105.019531 118.097656 103.84375 121.859375 102.097656 C 125.457031 100.429688 133.675781 95.84375 132.25 89.371094 Z M 132.25 89.371094 "/>
<path style=" stroke:none;fill-rule:nonzero;fill:rgb(0%,13.725491%,54.509807%);fill-opacity:1;" d="M 99 102 C 99 101.386719 99.035156 100.871094 99.054688 100.304688 C 99.023438 99.550781 99 99 99 99 C 99 99 99.035156 98.972656 99.097656 98.933594 C 99.542969 90.914062 101.753906 87.824219 104.121094 86.0625 C 103.789062 85.605469 103.410156 85.109375 103.054688 84.640625 C 102.054688 83.328125 100.808594 81.703125 99.476562 79.617188 L 99.230469 79.144531 C 99.03125 78.652344 98.542969 77.800781 97.925781 76.6875 C 94.378906 70.265625 86.992188 56.910156 92.046875 48.472656 C 94.261719 44.777344 98.410156 42.648438 104.410156 42.121094 C 101.957031 35.152344 92.773438 18.34375 71.953125 18 C 71.949219 18 71.941406 18 71.9375 18 C 53.8125 17.707031 47.859375 34.175781 45.921875 44.015625 C 48.589844 42.886719 51.640625 42.199219 54.429688 42.199219 C 54.472656 42.199219 54.515625 42.199219 54.558594 42.199219 C 61.429688 42.25 66.152344 45.914062 67.527344 52.261719 C 68.53125 56.914062 69.015625 60.988281 69.003906 64.71875 C 68.972656 72.875 67.328125 77.164062 65.878906 80.953125 L 65.414062 82.175781 C 65.042969 83.179688 64.648438 84.109375 64.277344 84.988281 C 63.898438 85.882812 63.566406 86.675781 63.324219 87.394531 C 64.777344 87.722656 65.914062 88.1875 66.699219 88.53125 L 67.152344 88.730469 C 67.292969 88.789062 67.433594 88.859375 67.5625 88.9375 C 70.105469 90.484375 71.691406 92.863281 72.03125 95.636719 C 72.214844 97.132812 72.183594 107.316406 72.121094 116.203125 C 72.382812 120.058594 73.035156 123.292969 73.898438 125.640625 C 75.125 128.980469 78.191406 135.363281 84.082031 134.996094 C 88.191406 134.742188 92.140625 132.238281 94.765625 128.941406 C 97.578125 125.398438 98.617188 121.480469 99.007812 117.066406 L 99.007812 102 Z M 99 102 "/>
<path style=" stroke:none;fill-rule:nonzero;fill:rgb(0%,13.725491%,54.509807%);fill-opacity:1;" d="M 45.34375 86.75 C 40.503906 81.703125 38.144531 74.910156 39.03125 68.582031 C 39.886719 62.476562 39.402344 56.503906 39.140625 53.289062 C 39.054688 52.21875 38.996094 51.421875 39 50.980469 C 39 50.953125 39.007812 50.933594 39.007812 50.910156 C 39.007812 50.898438 39.003906 50.890625 39.003906 50.878906 C 39.367188 41.8125 42.859375 27.515625 52.480469 19.015625 C 47.796875 17.171875 40.164062 14.738281 33 15 C 21.773438 15.40625 10.90625 23.171875 12 45 C 12.410156 53.191406 21.664062 102.308594 34.320312 102 C 36.128906 101.953125 38.007812 100.792969 39.9375 98.472656 C 42.988281 94.804688 45.949219 91.476562 48.058594 89.160156 C 47.113281 88.441406 46.203125 87.652344 45.34375 86.75 Z M 111.070312 44.191406 C 111.113281 44.65625 111.074219 45.050781 111.003906 45.417969 C 111.097656 48.175781 110.800781 50.855469 110.496094 53.449219 C 110.273438 55.355469 110.046875 57.328125 109.984375 59.304688 C 109.921875 61.238281 110.191406 63.148438 110.480469 65.171875 C 111.15625 69.90625 111.859375 75.25 108.1875 81.484375 C 108.859375 82.371094 109.453125 83.195312 109.929688 83.992188 C 123.757812 61.570312 129.332031 34.910156 124.015625 28.117188 C 115.964844 17.832031 104.824219 14.855469 95.996094 15 C 93.234375 15.046875 90.722656 15.417969 88.578125 15.882812 C 103.804688 23.261719 110.589844 39.078125 111.070312 44.191406 Z M 123 90.214844 C 115.003906 91.863281 111.160156 90.984375 109.292969 89.835938 C 108.992188 90.050781 108.691406 90.234375 108.414062 90.40625 C 107.296875 91.078125 105.53125 92.152344 105.097656 98.75 C 105.347656 98.800781 105.566406 98.824219 105.835938 98.882812 L 107.140625 99 C 111.101562 99.179688 116.289062 98.070312 119.332031 96.65625 C 125.886719 93.613281 129.460938 88.882812 123 90.214844 Z M 66.070312 96.355469 C 65.957031 95.464844 65.476562 94.738281 64.59375 94.160156 L 64.269531 94.019531 C 63.1875 93.542969 61.960938 93 60 93 L 59.988281 93 C 59.605469 93.03125 59.230469 93.058594 58.847656 93.058594 C 58.691406 93.058594 58.539062 93.035156 58.382812 93.03125 C 56.960938 94.125 54.9375 94.972656 49.933594 96 C 40.996094 98.277344 46.273438 100.964844 49.699219 101.382812 C 53.019531 102.214844 60.90625 103.222656 66.144531 98.953125 C 66.128906 97.609375 66.105469 96.6875 66.070312 96.355469 Z M 66.070312 96.355469 "/>
<path style=" stroke:none;fill-rule:nonzero;fill:rgb(0%,13.725491%,54.509807%);fill-opacity:1;" d="M 62.042969 55.503906 C 61.167969 56.410156 59.785156 57.199219 58.257812 56.953125 C 55.773438 56.554688 53.867188 53.554688 54.007812 52.429688 C 54.136719 51.308594 56.257812 50.722656 58.738281 51.125 C 59.601562 51.265625 60.382812 51.511719 61.042969 51.808594 C 60.085938 49.746094 58.347656 48.554688 55.699219 48.265625 C 51.003906 47.742188 46.019531 50.195312 45.019531 51.554688 C 45.039062 51.886719 45.078125 52.308594 45.117188 52.804688 C 45.394531 56.246094 45.910156 62.65625 44.96875 69.417969 C 44.34375 73.871094 46.144531 78.925781 49.667969 82.601562 C 51.9375 84.972656 54.589844 86.472656 57.207031 86.914062 C 57.539062 85.480469 58.132812 84.085938 58.746094 82.640625 C 59.085938 81.847656 59.445312 81 59.785156 80.085938 L 60.269531 78.804688 C 61.597656 75.339844 62.96875 71.753906 62.996094 64.695312 C 63.007812 61.980469 62.675781 58.882812 62.042969 55.503906 Z M 104.539062 66.019531 C 104.230469 63.835938 103.90625 61.570312 103.984375 59.113281 C 104.054688 56.886719 104.300781 54.785156 104.539062 52.753906 C 104.722656 51.15625 104.867188 49.621094 104.953125 48.105469 C 101.085938 48.425781 98.515625 49.542969 97.300781 51.429688 C 97.804688 51.257812 98.371094 51.121094 99.003906 51.042969 C 101.679688 50.695312 103.632812 51.464844 103.855469 52.953125 C 104.023438 54.042969 103.097656 55.066406 102.691406 55.460938 C 101.863281 56.269531 100.816406 56.785156 99.75 56.925781 C 99.558594 56.949219 99.363281 56.960938 99.175781 56.960938 C 98.113281 56.960938 97.105469 56.597656 96.328125 56.0625 C 96.664062 61.980469 101.027344 69.898438 103.175781 73.78125 C 103.636719 74.613281 103.988281 75.277344 104.28125 75.847656 C 105.460938 72.488281 105.027344 69.429688 104.539062 66.019531 Z M 104.539062 66.019531 "/>
</g>
</svg>
